<svg width="70" height="70" viewBox="0 0 70 70" fill="none" xmlns="http://www.w3.org/2000/svg">
<path opacity="0.2" d="M35 0.125C15.7344 0.125 0.125 15.875 0.125 35C0.125 54.2656 15.7344 69.875 35 69.875C54.125 69.875 69.875 54.2656 69.875 35C69.875 15.875 54.125 0.125 35 0.125ZM53.2812 16.7188C62.4219 26 63.125 40.0625 56.0938 49.9062L20.0938 13.9062C29.9375 6.875 44 7.57812 53.2812 16.7188ZM16.5781 53.4219C7.4375 44.1406 6.73438 30.0781 13.7656 20.2344L49.7656 56.2344C39.9219 63.2656 25.8594 62.5625 16.5781 53.4219Z" fill="white"/>
</svg>
