<svg width="40" height="40" viewBox="0 0 40 40" fill="none" xmlns="http://www.w3.org/2000/svg">
<rect width="40" height="40" rx="5" fill="#E54A40"/>
<path d="M27.1875 12.375H22.9688L22.6172 11.7422C22.4766 11.4609 22.1953 11.25 21.8789 11.25H17.8359C17.5195 11.25 17.2383 11.4609 17.0977 11.7422L16.7812 12.375H12.5625C12.2461 12.375 12 12.6562 12 12.9375V14.0625C12 14.3789 12.2461 14.625 12.5625 14.625H27.1875C27.4688 14.625 27.75 14.3789 27.75 14.0625V12.9375C27.75 12.6562 27.4688 12.375 27.1875 12.375ZM13.8633 27.668C13.8984 28.582 14.6367 29.25 15.5508 29.25H24.1641C25.0781 29.25 25.8164 28.582 25.8516 27.668L26.625 15.75H13.125L13.8633 27.668Z" fill="white"/>
</svg>
