<svg width="24" height="24" viewBox="0 0 24 24" fill="none" xmlns="http://www.w3.org/2000/svg">
<path d="M24 8.29688C24 3.70312 20.2969 0 15.7031 0C11.1562 0.046875 7.5 3.70312 7.5 8.25C7.5 9.1875 7.64062 10.0312 7.875 10.875L0.328125 18.4219C0.09375 18.6562 0 18.9375 0 19.2188V22.875C0 23.5312 0.46875 24 1.125 24H6.375C6.98438 24 7.5 23.5312 7.5 22.875V21H9.375C9.98438 21 10.5 20.5312 10.5 19.875V18H12.2344C12.5625 18 12.8438 17.8594 13.0781 17.625L14.2031 16.3594C14.6719 16.4531 15.1875 16.5 15.75 16.5C20.2969 16.5 24 12.8438 24 8.29688ZM15.75 6C15.75 4.78125 16.7344 3.75 18 3.75C19.2188 3.75 20.25 4.78125 20.25 6C20.25 7.26562 19.2188 8.25 18 8.25C16.7344 8.25 15.75 7.26562 15.75 6Z" fill="black"/>
</svg>
