<svg width="15" height="12" viewBox="0 0 15 12" fill="none" xmlns="http://www.w3.org/2000/svg">
<path d="M7.83984 5.65234C7.52344 6.00391 7.52344 6.53125 7.83984 6.84766L12.6211 11.6289C12.9727 11.9805 13.5 11.9805 13.8164 11.6289L14.625 10.8555C14.9414 10.5039 14.9414 9.97656 14.625 9.66016L11.2148 6.25L14.625 2.875C14.9414 2.55859 14.9414 1.99609 14.625 1.67969L13.8164 0.871094C13.5 0.554688 12.9727 0.554688 12.6211 0.871094L7.83984 5.65234ZM1.08984 6.84766L5.87109 11.6289C6.22266 11.9805 6.75 11.9805 7.06641 11.6289L7.875 10.8555C8.19141 10.5039 8.19141 9.97656 7.875 9.66016L4.46484 6.25L7.875 2.875C8.19141 2.55859 8.19141 1.99609 7.875 1.67969L7.06641 0.871094C6.75 0.554688 6.22266 0.554688 5.87109 0.871094L1.08984 5.65234C0.773438 6.00391 0.773438 6.53125 1.08984 6.84766Z" fill="#404244"/>
</svg>
