<svg width="72" height="64" viewBox="0 0 72 64" fill="none" xmlns="http://www.w3.org/2000/svg">
<path opacity="0.2" d="M65.25 63.5C68.9062 63.5 72 60.5469 72 56.75V7.25C72 3.59375 68.9062 0.5 65.25 0.5H6.75C2.95312 0.5 0 3.59375 0 7.25V56.75C0 60.5469 2.95312 63.5 6.75 63.5H65.25ZM18 12.875C21.0938 12.875 23.625 15.4062 23.625 18.5C23.625 21.7344 21.0938 24.125 18 24.125C14.7656 24.125 12.375 21.7344 12.375 18.5C12.375 15.4062 14.7656 12.875 18 12.875ZM18 26.375C21.0938 26.375 23.625 28.9062 23.625 32C23.625 35.2344 21.0938 37.625 18 37.625C14.7656 37.625 12.375 35.2344 12.375 32C12.375 28.9062 14.7656 26.375 18 26.375ZM18 39.875C21.0938 39.875 23.625 42.4062 23.625 45.5C23.625 48.7344 21.0938 51.125 18 51.125C14.7656 51.125 12.375 48.7344 12.375 45.5C12.375 42.4062 14.7656 39.875 18 39.875ZM58.5 20.75C58.5 21.7344 57.6562 22.4375 56.8125 22.4375H28.6875C27.7031 22.4375 27 21.7344 27 20.75V16.25C27 15.4062 27.7031 14.5625 28.6875 14.5625H56.8125C57.6562 14.5625 58.5 15.4062 58.5 16.25V20.75ZM58.5 34.25C58.5 35.2344 57.6562 35.9375 56.8125 35.9375H28.6875C27.7031 35.9375 27 35.2344 27 34.25V29.75C27 28.9062 27.7031 28.0625 28.6875 28.0625H56.8125C57.6562 28.0625 58.5 28.9062 58.5 29.75V34.25ZM58.5 47.75C58.5 48.7344 57.6562 49.4375 56.8125 49.4375H28.6875C27.7031 49.4375 27 48.7344 27 47.75V43.25C27 42.4062 27.7031 41.5625 28.6875 41.5625H56.8125C57.6562 41.5625 58.5 42.4062 58.5 43.25V47.75Z" fill="white"/>
</svg>
