<svg width="24" height="24" viewBox="0 0 24 24" fill="none" xmlns="http://www.w3.org/2000/svg">
<path d="M12 0.375C5.57812 0.375 0.375 5.57812 0.375 12C0.375 18.4219 5.57812 23.625 12 23.625C18.4219 23.625 23.625 18.4219 23.625 12C23.625 5.57812 18.4219 0.375 12 0.375ZM16.3125 15.0469L15.375 16.2188C15.2344 16.4062 15.0469 16.5469 14.7656 16.5469C14.625 16.5469 14.4375 16.4531 14.3438 16.3594L11.2031 14.0156C10.7344 13.6875 10.5 13.1719 10.5 12.5625V5.25C10.5 4.875 10.8281 4.5 11.25 4.5H12.75C13.125 4.5 13.5 4.875 13.5 5.25V12L16.2188 14.0156C16.3594 14.1562 16.5 14.3438 16.5 14.5781C16.5 14.7656 16.4062 14.9531 16.3125 15.0469Z" fill="white"/>
</svg>
