<svg width="24" height="20" viewBox="0 0 24 20" fill="none" xmlns="http://www.w3.org/2000/svg">
<path d="M23.2969 10.7969C23.7188 10.375 23.7188 9.67188 23.2969 9.20312L15.4219 1.32812C14.6719 0.625 13.5 1.14062 13.5 2.125V6.625H7.125C6.46875 6.625 6 7.14062 6 7.75V12.25C6 12.9062 6.46875 13.375 7.125 13.375H13.5V17.875C13.5 18.9062 14.7188 19.375 15.4219 18.6719L23.2969 10.7969ZM9 18.4375V16.5625C9 16.2812 8.71875 16 8.4375 16H4.5C3.65625 16 3 15.3438 3 14.5V5.5C3 4.70312 3.65625 4 4.5 4H8.4375C8.71875 4 9 3.76562 9 3.4375V1.5625C9 1.28125 8.71875 1 8.4375 1H4.5C2.01562 1 0 3.01562 0 5.5V14.5C0 16.9844 2.01562 19 4.5 19H8.4375C8.71875 19 9 18.7656 9 18.4375Z" fill="#404244"/>
</svg>
