<svg width="30" height="22" viewBox="0 0 30 22" fill="none" xmlns="http://www.w3.org/2000/svg">
<path d="M28.5938 15.0312C28.7344 14.375 28.7344 13.6719 28.5938 13.0156L29.8125 12.3125C29.9531 12.2656 30 12.0781 29.9531 11.9375C29.625 10.9062 29.1094 10.0156 28.4062 9.21875C28.3125 9.125 28.125 9.07812 27.9844 9.17188L26.7656 9.875C26.25 9.45312 25.6875 9.07812 25.0312 8.89062V7.48438C25.0312 7.29688 24.9375 7.15625 24.7969 7.15625C23.7188 6.92188 22.6875 6.92188 21.6562 7.15625C21.5156 7.15625 21.4219 7.29688 21.4219 7.48438V8.89062C20.7656 9.07812 20.2031 9.45312 19.6875 9.875L18.4688 9.17188C18.3281 9.07812 18.1406 9.125 18.0469 9.21875C17.3438 10.0156 16.7812 10.9062 16.5 11.9375C16.4531 12.0781 16.5 12.2656 16.6406 12.3125L17.8594 13.0156C17.7188 13.6719 17.7188 14.375 17.8594 15.0312L16.6406 15.7344C16.5 15.7812 16.4531 15.9688 16.5 16.1094C16.7812 17.1406 17.3438 18.0312 18.0469 18.8281C18.1406 18.9219 18.3281 18.9688 18.4688 18.875L19.6875 18.1719C20.2031 18.5938 20.7656 18.9688 21.4219 19.1562V20.5625C21.4219 20.75 21.5156 20.8906 21.6562 20.8906C22.7344 21.125 23.7656 21.125 24.7969 20.8906C24.9375 20.8906 25.0312 20.75 25.0312 20.5625V19.1562C25.6875 18.9688 26.25 18.5938 26.7656 18.1719L27.9844 18.875C28.125 18.9688 28.3125 18.9219 28.4062 18.8281C29.1094 18.0312 29.625 17.1406 29.9531 16.1094C30 15.9688 29.9531 15.7812 29.8125 15.7344L28.5938 15.0312ZM23.25 16.2969C21.9844 16.2969 20.9531 15.2656 20.9531 14C20.9531 12.7812 21.9844 11.75 23.25 11.75C24.4688 11.75 25.5 12.7812 25.5 14C25.5 15.2656 24.4688 16.2969 23.25 16.2969ZM4.5 9.5C6.14062 9.5 7.5 8.1875 7.5 6.5C7.5 4.85938 6.14062 3.5 4.5 3.5C2.8125 3.5 1.5 4.85938 1.5 6.5C1.5 8.1875 2.8125 9.5 4.5 9.5ZM15 11C15.0469 11 15.1406 11 15.2344 11C15.6094 9.96875 16.2188 9.03125 16.9219 8.23438C17.2969 7.85938 17.7656 7.625 18.2812 7.625C18.6094 7.625 18.9375 7.71875 19.2188 7.85938L19.5938 8.09375C19.6406 8.04688 19.6406 8.04688 19.6875 8.04688C20.0156 7.34375 20.2031 6.59375 20.2031 5.79688C20.2031 2.89062 17.8594 0.546875 14.9531 0.546875C12.0938 0.546875 9.75 2.89062 9.75 5.75C9.75 8.65625 12.0938 11 15 11ZM19.9219 20.1406C19.7812 20.0938 19.6875 20 19.5938 19.9531C19.2188 20.1875 18.8906 20.4219 18.2812 20.4219C17.8125 20.4219 17.2969 20.1875 16.9688 19.8125C16.0781 18.875 15.4219 17.75 15.0469 16.5781C14.5781 14.9375 16.2188 14.2344 16.2656 14.1875C16.2656 14.0938 16.2656 13.9531 16.2656 13.8594L15.8906 13.625C15.7031 13.5312 15.5625 13.3906 15.4219 13.25C15.2812 13.25 15.1406 13.25 15 13.25C13.8281 13.25 12.75 12.9688 11.7656 12.5H11.3906C8.39062 12.5 6 14.9375 6 17.9375V19.25C6 20.5156 6.98438 21.5 8.25 21.5H20.2031C20.0156 21.2188 19.9219 20.9375 19.9219 20.5625V20.1406ZM8.10938 11.8906C7.54688 11.375 6.79688 11 6 11H3C1.3125 11 0 12.3594 0 14V15.5C0 16.3438 0.65625 17 1.5 17H4.54688C4.875 14.7969 6.1875 12.9219 8.10938 11.8906Z" fill="#fff"/>
</svg>
