<svg width="78" height="73" viewBox="0 0 78 73" fill="none" xmlns="http://www.w3.org/2000/svg">
<path opacity="0.2" d="M75.1094 40.5H41.7812L64 62.8594C64.8438 63.7031 66.25 63.7031 67.0938 62.8594C72.5781 57.7969 76.375 50.9062 77.3594 43.0312C77.6406 41.7656 76.5156 40.5 75.1094 40.5ZM72.8594 31.5C71.7344 14.625 58.375 1.26562 41.5 0.140625C40.2344 0 39.25 1.125 39.25 2.39062V33.75H70.6094C71.875 33.75 73 32.7656 72.8594 31.5ZM32.5 40.5V7.17188C32.5 5.90625 31.2344 4.78125 29.9688 4.92188C13.0938 7.3125 0.296875 21.9375 1 39.5156C1.5625 57.5156 17.0312 72.2812 35.1719 72C42.2031 72 48.8125 69.75 54.1562 65.8125C55.2812 65.1094 55.2812 63.4219 54.2969 62.4375L32.5 40.5Z" fill="white"/>
</svg>
