<svg width="70" height="70" viewBox="0 0 70 70" fill="none" xmlns="http://www.w3.org/2000/svg">
<path opacity="0.2" d="M35 0.125C15.7344 0.125 0.125 15.7344 0.125 35C0.125 54.2656 15.7344 69.875 35 69.875C54.2656 69.875 69.875 54.2656 69.875 35C69.875 15.7344 54.2656 0.125 35 0.125ZM55.25 38.9375C55.25 39.9219 54.4062 40.625 53.5625 40.625H40.625V53.5625C40.625 54.5469 39.7812 55.25 38.9375 55.25H31.0625C30.0781 55.25 29.375 54.5469 29.375 53.5625V40.625H16.4375C15.4531 40.625 14.75 39.9219 14.75 38.9375V31.0625C14.75 30.2188 15.4531 29.375 16.4375 29.375H29.375V16.4375C29.375 15.5938 30.0781 14.75 31.0625 14.75H38.9375C39.7812 14.75 40.625 15.5938 40.625 16.4375V29.375H53.5625C54.4062 29.375 55.25 30.2188 55.25 31.0625V38.9375Z" fill="white"/>
</svg>
