<svg width="15" height="12" viewBox="0 0 15 12" fill="none" xmlns="http://www.w3.org/2000/svg">
<path d="M7.875 6.84766C8.19141 6.53125 8.19141 6.00391 7.875 5.65234L3.09375 0.871094C2.74219 0.554688 2.21484 0.554688 1.89844 0.871094L1.08984 1.67969C0.773438 2.03125 0.773438 2.55859 1.08984 2.875L4.5 6.28516L1.08984 9.66016C0.773438 9.97656 0.773438 10.5039 1.08984 10.8555L1.89844 11.6289C2.21484 11.9805 2.74219 11.9805 3.09375 11.6289L7.875 6.84766ZM14.625 5.65234L9.84375 0.871094C9.49219 0.554688 8.96484 0.554688 8.64844 0.871094L7.83984 1.67969C7.52344 1.99609 7.52344 2.55859 7.83984 2.875L11.25 6.25L7.83984 9.66016C7.52344 9.97656 7.52344 10.5039 7.83984 10.8555L8.64844 11.6289C8.96484 11.9805 9.52734 11.9805 9.84375 11.6289L14.625 6.84766C14.9414 6.53125 14.9414 6.00391 14.625 5.65234Z" fill="#404244"/>
</svg>
