<svg width="24" height="22" viewBox="0 0 24 22" fill="none" xmlns="http://www.w3.org/2000/svg">
<path d="M22.5 6.5C23.2969 6.5 24 5.84375 24 5V2C24 1.20312 23.2969 0.5 22.5 0.5H1.5C0.65625 0.5 0 1.20312 0 2V5C0 5.84375 0.65625 6.5 1.5 6.5H22.5ZM20.25 2.375C20.8594 2.375 21.375 2.89062 21.375 3.5C21.375 4.15625 20.8594 4.625 20.25 4.625C19.5938 4.625 19.125 4.15625 19.125 3.5C19.125 2.89062 19.5938 2.375 20.25 2.375ZM17.25 2.375C17.8594 2.375 18.375 2.89062 18.375 3.5C18.375 4.15625 17.8594 4.625 17.25 4.625C16.5938 4.625 16.125 4.15625 16.125 3.5C16.125 2.89062 16.5938 2.375 17.25 2.375ZM22.5 14C23.2969 14 24 13.3438 24 12.5V9.5C24 8.70312 23.2969 8 22.5 8H1.5C0.65625 8 0 8.70312 0 9.5V12.5C0 13.3438 0.65625 14 1.5 14H22.5ZM20.25 9.875C20.8594 9.875 21.375 10.3906 21.375 11C21.375 11.6562 20.8594 12.125 20.25 12.125C19.5938 12.125 19.125 11.6562 19.125 11C19.125 10.3906 19.5938 9.875 20.25 9.875ZM17.25 9.875C17.8594 9.875 18.375 10.3906 18.375 11C18.375 11.6562 17.8594 12.125 17.25 12.125C16.5938 12.125 16.125 11.6562 16.125 11C16.125 10.3906 16.5938 9.875 17.25 9.875ZM22.5 21.5C23.2969 21.5 24 20.8438 24 20V17C24 16.2031 23.2969 15.5 22.5 15.5H1.5C0.65625 15.5 0 16.2031 0 17V20C0 20.8438 0.65625 21.5 1.5 21.5H22.5ZM20.25 17.375C20.8594 17.375 21.375 17.8906 21.375 18.5C21.375 19.1562 20.8594 19.625 20.25 19.625C19.5938 19.625 19.125 19.1562 19.125 18.5C19.125 17.8906 19.5938 17.375 20.25 17.375ZM17.25 17.375C17.8594 17.375 18.375 17.8906 18.375 18.5C18.375 19.1562 17.8594 19.625 17.25 19.625C16.5938 19.625 16.125 19.1562 16.125 18.5C16.125 17.8906 16.5938 17.375 17.25 17.375Z" fill="#fff"/>
</svg>
