<svg width="68" height="69" viewBox="0 0 68 69" fill="none" xmlns="http://www.w3.org/2000/svg">
<path d="M33.9062 0.84375C15.1758 0.84375 0 16.0195 0 34.75C0 53.4805 15.1758 68.6562 33.9062 68.6562C52.6367 68.6562 67.8125 53.4805 67.8125 34.75C67.8125 16.0195 52.6367 0.84375 33.9062 0.84375ZM33.9062 13.9688C40.4688 13.9688 45.9375 19.4375 45.9375 26C45.9375 32.6992 40.4688 38.0312 33.9062 38.0312C27.207 38.0312 21.875 32.6992 21.875 26C21.875 19.4375 27.207 13.9688 33.9062 13.9688ZM33.9062 61C25.8398 61 18.5938 57.4453 13.8086 51.7031C16.4062 46.918 21.4648 43.5 27.3438 43.5C27.6172 43.5 27.8906 43.6367 28.3008 43.7734C30.0781 44.3203 31.8555 44.5938 33.9062 44.5938C35.8203 44.5938 37.7344 44.3203 39.375 43.7734C39.7852 43.6367 40.0586 43.5 40.4688 43.5C46.2109 43.5 51.2695 46.918 53.8672 51.7031C49.082 57.4453 41.8359 61 33.9062 61Z" fill="#E1E1E1"/>
</svg>
